<svg version="1.1" id="Layer_1" xmlns="http://www.w3.org/2000/svg" xmlns:xlink="http://www.w3.org/1999/xlink" x="0px" y="0px"
	 width="100%" viewBox="0 0 1024 1024" enable-background="new 0 0 1024 1024" xml:space="preserve">
<path fill="#FFFFFF" opacity="1.000000" stroke="none" 
	d="
M568.000000,1025.000000 
	C378.666656,1025.000000 189.833328,1025.000000 1.000000,1025.000000 
	C1.000000,683.666687 1.000000,342.333344 1.000000,1.000000 
	C342.333344,1.000000 683.666687,1.000000 1025.000000,1.000000 
	C1025.000000,342.333344 1025.000000,683.666687 1025.000000,1025.000000 
	C872.833313,1025.000000 720.666687,1025.000000 568.000000,1025.000000 
M848.061218,226.964661 
	C848.061218,226.964661 848.163147,226.964554 848.067505,226.359451 
	C847.731079,225.869522 847.394592,225.379593 847.038330,224.971680 
	C847.038330,224.971680 847.122559,224.976761 847.026611,224.380112 
	C846.699463,223.888748 846.372314,223.397385 846.018799,222.976593 
	C846.018799,222.976593 846.094116,222.974976 845.945679,222.427155 
	C845.650330,222.197449 845.354980,221.967728 845.066162,221.346954 
	C845.066162,221.346954 844.918457,220.984818 844.920349,220.417557 
	C844.599548,219.952118 844.278809,219.486679 843.788391,218.354599 
	C825.402832,187.393173 799.120056,165.704208 765.327576,151.818695 
	C764.233398,151.488022 763.139221,151.157333 762.022827,150.921768 
	C762.022827,150.921768 762.120483,150.923462 761.692810,150.386444 
	C760.806824,150.190125 759.920776,149.993790 759.012146,149.904312 
	C759.012146,149.904312 759.121338,149.905487 758.730225,149.334656 
	C757.828247,149.162201 756.926331,148.989746 756.012085,148.923401 
	C756.012085,148.923401 756.118652,148.916473 755.663635,148.325302 
	C752.120605,147.576752 748.577576,146.828217 744.612183,145.953415 
	C744.612183,145.953415 744.171387,145.956924 743.792725,145.340775 
	C742.862305,145.228363 741.931946,145.115936 740.593689,144.922485 
	C740.593689,144.922485 740.179138,144.955414 739.702698,144.316071 
	C731.479309,143.259872 723.255981,142.203690 714.105408,140.972687 
	C618.690063,140.955399 523.274719,140.921768 427.859406,140.929718 
	C394.559357,140.932480 361.259338,141.037781 327.179962,140.996826 
	C326.134430,141.028931 325.088898,141.061020 323.281586,140.943680 
	C322.510498,140.994278 321.739380,141.044861 320.501251,141.020233 
	C320.501251,141.020233 320.034851,141.099365 319.176453,140.949692 
	C317.438263,141.003311 315.700043,141.056931 313.436829,141.124557 
	C313.243256,141.407104 313.049683,141.689636 311.980103,141.984985 
	C307.437714,142.297134 302.869843,142.406418 298.359467,142.973328 
	C292.859100,143.664673 287.407104,144.740631 281.122040,145.775513 
	C275.708099,147.486786 270.294189,149.198059 264.989288,150.902786 
	C264.989288,150.902786 264.962341,150.796921 264.272614,150.822922 
	C263.473297,151.187424 262.673981,151.551926 261.976379,151.915024 
	C261.976379,151.915024 261.952972,151.816040 261.240753,151.875305 
	C259.782104,152.552856 258.323486,153.230408 256.967651,153.917282 
	C256.967651,153.917282 256.951904,153.815262 256.221832,153.900223 
	C254.951324,154.578110 253.680832,155.255981 252.238312,155.782455 
	C252.238312,155.782455 252.046310,155.907608 251.427704,155.973831 
	C250.917908,156.299011 250.408112,156.624191 249.974136,156.967270 
	C249.974136,156.967270 249.979141,156.889511 249.372772,156.974289 
	C248.875931,157.294617 248.379105,157.614944 247.964127,157.937912 
	C247.964127,157.937912 247.945847,157.858078 247.473999,157.924286 
	C247.473999,157.924286 247.039307,158.119415 246.354630,158.249878 
	C216.103989,173.748825 193.038971,196.508881 177.458252,226.733795 
	C166.580551,247.835327 160.361160,270.185516 159.988602,294.973267 
	C159.983582,362.132996 159.959518,429.292694 159.980499,496.452423 
	C159.993576,538.279175 160.074722,580.105957 159.964386,622.833618 
	C161.037552,630.900024 162.110718,638.966370 163.070496,647.833557 
	C166.015549,657.266235 168.960602,666.698975 171.894302,676.028015 
	C171.894302,676.028015 171.796356,676.063721 171.858734,676.754028 
	C172.291046,677.815247 172.723358,678.876404 173.268341,680.641479 
	C185.265045,708.077271 202.844284,731.283325 227.658478,748.105225 
	C246.595673,760.943115 266.529297,772.329834 286.189880,784.077209 
	C312.425079,799.752808 338.822235,815.157288 365.155029,830.669373 
	C399.783142,851.068115 434.416351,871.458191 469.460693,892.079163 
	C469.460693,892.079163 469.919800,892.187378 469.941132,892.091797 
	C469.941132,892.091797 469.843903,892.103210 470.157715,892.685913 
	C471.091064,893.155640 472.024414,893.625305 472.979645,894.019592 
	C472.979645,894.019592 472.905212,894.044434 473.303223,894.502686 
	C473.860931,894.716980 474.418610,894.931335 474.969055,895.046265 
	C474.969055,895.046265 474.872498,895.070801 475.217468,895.589783 
	C475.799805,895.786682 476.382111,895.983582 476.953430,896.066345 
	C476.953430,896.066345 476.844543,896.102234 477.155273,896.656250 
	C477.752716,896.839294 478.350159,897.022400 478.954102,897.099731 
	C478.954102,897.099731 478.851440,897.126221 479.220154,897.749634 
	C480.112122,897.927551 481.004089,898.105530 481.964264,898.150391 
	C481.964264,898.150391 481.820587,898.109192 481.719666,898.757202 
	C482.125214,898.902100 482.530762,899.047058 482.947754,899.088074 
	C482.947754,899.088074 482.845062,899.107849 483.161652,899.657104 
	C483.766663,899.817810 484.371674,899.978516 484.980103,900.049927 
	C484.980103,900.049927 484.891541,900.062195 485.374756,900.594849 
	C489.248169,902.017883 493.121552,903.440918 497.821747,904.998230 
	C508.167877,907.343567 518.529419,907.563782 528.829102,904.872131 
	C530.711243,904.380310 532.361694,903.001709 534.901123,902.014038 
	C541.790466,899.144287 548.994507,896.848511 555.501099,893.280701 
	C567.583374,886.655396 579.244568,879.263855 591.105774,872.233215 
	C655.691833,833.950378 720.309570,795.721008 784.865723,757.387939 
	C815.339905,739.292664 838.421387,714.488770 852.474609,681.700439 
	C860.244995,663.570984 865.144348,644.737976 865.971863,624.009827 
	C866.026794,551.355225 866.120422,478.700592 866.120911,406.045990 
	C866.121216,367.387726 865.960327,328.729492 866.023682,289.217651 
	C864.194885,278.791290 862.366028,268.364899 860.314880,257.159882 
	C859.241577,254.062073 858.168274,250.964279 857.099243,247.971436 
	C857.099243,247.971436 857.200195,247.942154 857.129456,247.191544 
	C856.114258,244.752396 855.099121,242.313263 854.084656,239.972275 
	C854.084656,239.972275 854.179993,239.948639 854.106384,239.221603 
	C853.097046,237.106750 852.087708,234.991898 851.060852,232.969910 
	C851.060852,232.969910 851.155334,232.966629 851.070862,232.351746 
	C850.740601,231.856796 850.410339,231.361862 850.062500,230.969681 
	C850.062500,230.969681 850.166687,230.966293 850.100708,230.341797 
	C849.761047,229.849213 849.421448,229.356613 849.056091,228.963715 
	C849.056091,228.963715 849.158936,228.968735 849.065491,228.353485 
	C848.737915,227.857346 848.410339,227.361191 848.061218,226.964661 
z"/>
<path fill="#7F7F7F" opacity="1.000000" stroke="none" 
	d="
M252.046326,155.907623 
	C252.046310,155.907608 252.238312,155.782455 252.727783,155.874084 
	C254.462143,155.248886 255.707016,154.532074 256.951904,153.815262 
	C256.951904,153.815262 256.967651,153.917282 257.304199,153.944168 
	C259.078186,153.252716 260.515564,152.534378 261.952972,151.816040 
	C261.952972,151.816040 261.976379,151.915024 262.290527,151.936630 
	C263.390594,151.571136 264.176453,151.184036 264.962341,150.796921 
	C264.962341,150.796921 264.989288,150.902786 265.354004,150.933945 
	C271.123871,149.193481 276.529022,147.421860 281.934174,145.650253 
	C287.407104,144.740631 292.859100,143.664673 298.359467,142.973328 
	C302.869843,142.406418 307.437714,142.297134 312.650696,141.900726 
	C313.645782,141.681885 313.859314,141.446564 313.961853,141.110550 
	C315.700043,141.056931 317.438263,141.003311 319.682922,141.188812 
	C320.449005,141.317108 320.708649,141.206268 320.968292,141.095444 
	C321.739380,141.044861 322.510498,140.994278 323.863953,141.274216 
	C325.617340,141.435257 326.788300,141.265762 327.959290,141.096252 
	C361.259338,141.037781 394.559357,140.932480 427.859406,140.929718 
	C523.274719,140.921768 618.690063,140.955399 714.662170,141.441498 
	C723.539001,142.925354 731.859070,143.940384 740.179138,144.955414 
	C740.179138,144.955414 740.593689,144.922485 741.004211,145.248062 
	C742.333618,145.701401 743.252502,145.829163 744.171387,145.956924 
	C744.171387,145.956924 744.612183,145.953415 745.049927,146.295105 
	C749.031311,147.396683 752.575012,148.156586 756.118652,148.916473 
	C756.118652,148.916473 756.012085,148.923401 756.187866,149.187820 
	C757.282898,149.603333 758.202148,149.754410 759.121338,149.905487 
	C759.121338,149.905487 759.012146,149.904312 759.183228,150.175476 
	C760.276428,150.605591 761.198425,150.764526 762.120483,150.923462 
	C762.120483,150.923462 762.022827,150.921768 762.128296,151.200027 
	C763.479248,151.678223 764.724792,151.878159 765.970276,152.078079 
	C799.120056,165.704208 825.402832,187.393173 843.636597,218.843567 
	C843.962769,219.883286 844.440613,220.434052 844.918457,220.984802 
	C844.918457,220.984818 845.066162,221.346954 845.142578,221.818390 
	C845.510620,222.518204 845.802368,222.746613 846.094116,222.974991 
	C846.094116,222.974976 846.018799,222.976593 846.047607,223.260834 
	C846.425110,224.022308 846.773804,224.499542 847.122559,224.976776 
	C847.122559,224.976761 847.038330,224.971680 847.056274,225.256317 
	C847.437195,226.015472 847.800171,226.490005 848.163147,226.964539 
	C848.163147,226.964554 848.061218,226.964661 848.067383,227.243011 
	C848.435364,228.003815 848.797180,228.486267 849.158936,228.968719 
	C849.158936,228.968735 849.056091,228.963715 849.063843,229.242889 
	C849.436584,230.003479 849.801636,230.484879 850.166687,230.966278 
	C850.166687,230.966293 850.062500,230.969681 850.071899,231.246521 
	C850.439270,232.004456 850.797302,232.485550 851.155334,232.966629 
	C851.155334,232.966629 851.060852,232.969910 851.042358,233.317566 
	C852.075867,235.759705 853.127930,237.854172 854.179993,239.948639 
	C854.179993,239.948639 854.084656,239.972275 854.058533,240.326416 
	C855.088318,243.101105 856.144226,245.521637 857.200195,247.942169 
	C857.200195,247.942154 857.099243,247.971436 857.064148,248.342041 
	C858.198425,251.787949 859.367798,254.863251 860.537231,257.938538 
	C862.366028,268.364899 864.194885,278.791290 865.670105,289.945251 
	C865.209595,291.990662 865.009216,293.308533 865.009033,294.626373 
	C864.992920,403.150970 864.988647,511.675537 865.027039,620.200134 
	C865.027649,621.777832 865.576050,623.355469 865.868774,624.933105 
	C865.144348,644.737976 860.244995,663.570984 852.474609,681.700439 
	C838.421387,714.488770 815.339905,739.292664 784.865723,757.387939 
	C720.309570,795.721008 655.691833,833.950378 591.105774,872.233215 
	C579.244568,879.263855 567.583374,886.655396 555.501099,893.280701 
	C548.994507,896.848511 541.790466,899.144287 534.117798,902.054016 
	C521.316833,906.173279 509.191162,905.963684 496.621063,902.959229 
	C492.461029,901.959900 488.676270,901.011047 484.891541,900.062195 
	C484.891541,900.062195 484.980103,900.049927 484.836853,899.799072 
	C484.077454,899.401367 483.461243,899.254578 482.845062,899.107849 
	C482.845062,899.107849 482.947754,899.088074 482.857941,898.868958 
	C482.452301,898.469604 482.136444,898.289368 481.820587,898.109192 
	C481.820587,898.109192 481.964264,898.150391 481.787476,897.879150 
	C480.690979,897.447388 479.771210,897.286804 478.851440,897.126221 
	C478.851440,897.126221 478.954102,897.099731 478.818787,896.848694 
	C478.070496,896.432495 477.457520,896.267334 476.844543,896.102173 
	C476.844543,896.102234 476.953430,896.066345 476.823364,895.825745 
	C476.086365,895.413696 475.479431,895.242249 474.872498,895.070801 
	C474.872498,895.070801 474.969055,895.046265 474.834900,894.805908 
	C474.102203,894.391785 473.503723,894.218140 472.905212,894.044434 
	C472.905212,894.044434 472.979645,894.019592 472.945312,893.690674 
	C471.888641,892.942261 470.866272,892.522705 469.843903,892.103210 
	C469.843903,892.103210 469.941132,892.091797 469.901245,891.944336 
	C469.590057,891.815247 469.318695,891.833679 469.047363,891.852051 
	C434.416351,871.458191 399.783142,851.068115 365.155029,830.669373 
	C338.822235,815.157288 312.425079,799.752808 286.189880,784.077209 
	C266.529297,772.329834 246.595673,760.943115 227.658478,748.105225 
	C202.844284,731.283325 185.265045,708.077271 173.455063,680.082275 
	C173.026642,678.369995 172.411514,677.216858 171.796356,676.063721 
	C171.796356,676.063721 171.894302,676.028015 171.931412,675.665466 
	C169.491913,666.071289 167.025604,656.836792 164.491684,647.620911 
	C164.410919,647.327148 163.635498,647.224487 163.183899,647.032776 
	C162.110718,638.966370 161.037552,630.900024 160.325195,622.083130 
	C160.793671,620.016235 160.995361,618.699707 160.995544,617.383240 
	C161.010635,511.173248 161.013931,404.963257 160.972595,298.753265 
	C160.971985,297.184723 160.401840,295.616333 160.097488,294.047882 
	C160.361160,270.185516 166.580551,247.835327 177.458252,226.733795 
	C193.038971,196.508881 216.103989,173.748825 246.803650,158.346619 
	C247.483734,158.248276 247.714798,158.053177 247.945862,157.858093 
	C247.945847,157.858078 247.964127,157.937912 248.245819,157.930878 
	C249.011383,157.579056 249.495255,157.234283 249.979126,156.889496 
	C249.979141,156.889511 249.974136,156.967270 250.260742,156.946716 
	C251.046997,156.586670 251.546661,156.247147 252.046326,155.907623 
M280.520844,193.072937 
	C280.021057,193.363312 279.521301,193.653687 278.616882,194.067993 
	C278.616882,194.067993 278.194092,194.050171 277.462250,194.075790 
	C276.883942,194.481384 276.305634,194.886963 275.343140,195.825470 
	C234.314041,214.997498 210.711807,246.760773 205.059952,292.239288 
	C204.710556,293.940186 204.062378,295.640137 204.056992,297.342133 
	C203.986359,319.673431 204.003876,342.005035 204.004288,364.336548 
	C204.005844,448.663055 203.998367,532.989563 204.082062,617.315979 
	C204.083908,619.188110 205.132477,621.059204 205.934235,623.795349 
	C206.254700,627.544434 206.575165,631.293579 206.348679,635.552246 
	C207.273178,639.029297 208.197678,642.506348 209.039139,645.984375 
	C209.039139,645.984375 209.050507,645.902100 209.039825,646.714539 
	C209.758072,648.798828 210.476318,650.883118 211.088165,652.987732 
	C211.088165,652.987732 211.088394,652.879395 211.043396,653.641602 
	C211.513611,654.405396 211.983826,655.169250 212.902069,656.452393 
	C222.649689,682.632568 239.116287,703.337708 263.266083,717.594543 
	C341.696686,763.895996 420.181549,810.105408 498.638184,856.362732 
	C508.126770,861.957153 517.504028,861.749207 526.942200,856.203247 
	C602.020325,812.085815 676.894714,767.615356 752.292969,724.051758 
	C788.966125,702.862732 812.756958,673.358093 820.160706,630.602417 
	C820.142029,623.418091 820.123352,616.233826 819.946838,608.143188 
	C819.999451,605.079102 820.052124,602.015015 820.652161,598.418884 
	C820.470764,595.962830 820.289429,593.506775 819.948425,590.121948 
	C820.000305,585.065063 820.052185,580.008240 820.634399,574.467163 
	C820.458984,572.661560 820.283508,570.855896 819.950439,568.189209 
	C820.003601,566.443237 820.056763,564.697266 820.588440,562.602966 
	C820.428772,561.751526 820.269165,560.900024 819.948792,559.117004 
	C820.003723,546.727417 820.058655,534.337830 820.608765,521.536865 
	C820.441589,520.374268 820.274414,519.211609 819.953125,517.355652 
	C820.003906,516.887634 820.054749,516.419678 820.607788,515.545532 
	C820.442078,514.380493 820.276306,513.215454 819.956848,511.238434 
	C820.008545,510.141907 820.060242,509.045410 820.609863,507.540375 
	C820.443848,506.377319 820.277832,505.214294 819.951660,503.122559 
	C820.004028,498.068512 820.056335,493.014465 820.435974,487.807770 
	C820.324585,487.550873 820.213135,487.293976 819.943665,486.108490 
	C819.996887,480.722961 820.050110,475.337463 820.622559,469.503113 
	C820.450989,468.018829 820.279419,466.534515 819.949646,464.122681 
	C820.002197,459.400024 820.054749,454.677338 820.544250,449.690338 
	C820.399353,449.142242 820.254517,448.594147 819.951843,447.114563 
	C820.003906,440.063202 820.056030,433.011841 820.434021,425.808655 
	C820.324280,425.551880 820.214478,425.295135 819.945923,424.108002 
	C820.000549,417.058685 820.055176,410.009338 820.434570,402.807404 
	C820.324829,402.551117 820.215149,402.294830 819.946167,401.108154 
	C819.997803,393.057892 820.049438,385.007629 820.543274,376.694855 
	C820.396545,376.144470 820.249817,375.594086 819.945740,374.113007 
	C819.997559,368.061096 820.049438,362.009186 820.543579,355.695007 
	C820.397278,355.144775 820.251038,354.594543 819.954407,353.352753 
	C820.003174,352.886078 820.051941,352.419373 820.677490,351.365204 
	C820.486816,346.260010 820.296143,341.154816 819.949402,335.282532 
	C820.001587,334.505157 820.053711,333.727783 820.676392,332.356415 
	C820.486084,326.587555 820.295776,320.818665 819.946838,314.151276 
	C819.996460,311.419189 820.046082,308.687103 820.674377,305.370209 
	C820.405762,300.549133 820.137146,295.728088 819.778442,290.715057 
	C819.778442,290.715057 819.942078,290.580170 819.977844,289.711304 
	C819.972351,289.421478 819.966858,289.131622 819.980774,288.029572 
	C818.648193,282.480103 817.319153,276.929810 815.982483,271.381317 
	C805.313660,227.096848 761.931946,190.439178 715.703857,186.987885 
	C713.659302,186.660019 711.615112,186.048157 709.570190,186.045868 
	C660.095032,185.990692 610.619873,185.998383 561.144653,185.999191 
	C479.185730,186.000534 397.226776,185.993271 315.267914,186.075317 
	C313.207031,186.077393 311.147095,187.078537 308.251526,187.897781 
	C305.158234,188.210495 302.064941,188.523193 298.986542,188.415482 
	C298.986542,188.415482 298.993256,187.994843 299.270874,187.887802 
	C299.182373,187.927505 299.093903,187.967224 298.145782,187.989243 
	C293.437927,189.381104 288.730103,190.772980 284.015503,192.062073 
	C284.015503,192.062073 284.117950,192.072693 283.390839,192.046936 
	C282.606415,192.432495 281.821991,192.818069 281.028778,193.089584 
	C281.028778,193.089584 281.141754,193.107483 280.520844,193.072937 
z"/>
<path fill="#5B5C5D" opacity="1.000000" stroke="none" 
	d="
M865.920288,624.471436 
	C865.576050,623.355469 865.027649,621.777832 865.027039,620.200134 
	C864.988647,511.675537 864.992920,403.150970 865.009033,294.626373 
	C865.009216,293.308533 865.209595,291.990662 865.594360,290.372009 
	C865.960327,328.729492 866.121216,367.387726 866.120911,406.045990 
	C866.120422,478.700592 866.026794,551.355225 865.920288,624.471436 
z"/>
<path fill="#5E5E5F" opacity="1.000000" stroke="none" 
	d="
M160.043045,294.510559 
	C160.401840,295.616333 160.971985,297.184723 160.972595,298.753265 
	C161.013931,404.963257 161.010635,511.173248 160.995544,617.383240 
	C160.995361,618.699707 160.793671,620.016235 160.405670,621.632690 
	C160.074722,580.105957 159.993576,538.279175 159.980499,496.452423 
	C159.959518,429.292694 159.983582,362.132996 160.043045,294.510559 
z"/>
<path fill="#6E6F6F" opacity="1.000000" stroke="none" 
	d="
M496.996338,903.009766 
	C509.191162,905.963684 521.316833,906.173279 533.726746,902.063232 
	C532.361694,903.001709 530.711243,904.380310 528.829102,904.872131 
	C518.529419,907.563782 508.167877,907.343567 497.411346,904.622009 
	C496.999420,903.833801 496.997864,903.421753 496.996338,903.009766 
z"/>
<path fill="#6B6B6C" opacity="1.000000" stroke="none" 
	d="
M163.127197,647.433167 
	C163.635498,647.224487 164.410919,647.327148 164.491684,647.620911 
	C167.025604,656.836792 169.491913,666.071289 171.937088,675.717285 
	C168.960602,666.698975 166.015549,657.266235 163.127197,647.433167 
z"/>
<path fill="#666767" opacity="1.000000" stroke="none" 
	d="
M739.940918,144.635742 
	C731.859070,143.940384 723.539001,142.925354 715.125732,141.528900 
	C723.255981,142.203690 731.479309,143.259872 739.940918,144.635742 
z"/>
<path fill="#6B6B6C" opacity="1.000000" stroke="none" 
	d="
M281.528107,145.712891 
	C276.529022,147.421860 271.123871,149.193481 265.299500,150.937210 
	C270.294189,149.198059 275.708099,147.486786 281.528107,145.712891 
z"/>
<path fill="#6A6A6A" opacity="1.000000" stroke="none" 
	d="
M496.621063,902.959229 
	C496.997864,903.421753 496.999420,903.833801 496.997955,904.554932 
	C493.121552,903.440918 489.248169,902.017883 485.133148,900.328491 
	C488.676270,901.011047 492.461029,901.959900 496.621063,902.959229 
z"/>
<path fill="#6A6A6A" opacity="1.000000" stroke="none" 
	d="
M755.891113,148.620880 
	C752.575012,148.156586 749.031311,147.396683 745.261108,146.358246 
	C748.577576,146.828217 752.120605,147.576752 755.891113,148.620880 
z"/>
<path fill="#6B6C6C" opacity="1.000000" stroke="none" 
	d="
M860.426025,257.549194 
	C859.367798,254.863251 858.198425,251.787949 857.062012,248.289551 
	C858.168274,250.964279 859.241577,254.062073 860.426025,257.549194 
z"/>
<path fill="#6B6C6C" opacity="1.000000" stroke="none" 
	d="
M857.164795,247.566864 
	C856.144226,245.521637 855.088318,243.101105 854.058228,240.277344 
	C855.099121,242.313263 856.114258,244.752396 857.164795,247.566864 
z"/>
<path fill="#6B6C6C" opacity="1.000000" stroke="none" 
	d="
M854.143188,239.585114 
	C853.127930,237.854172 852.075867,235.759705 851.051147,233.271133 
	C852.087708,234.991898 853.097046,237.106750 854.143188,239.585114 
z"/>
<path fill="#6B6B6C" opacity="1.000000" stroke="none" 
	d="
M261.596863,151.845673 
	C260.515564,152.534378 259.078186,153.252716 257.252808,153.939514 
	C258.323486,153.230408 259.782104,152.552856 261.596863,151.845673 
z"/>
<path fill="#6B6B6C" opacity="1.000000" stroke="none" 
	d="
M171.827545,676.408875 
	C172.411514,677.216858 173.026642,678.369995 173.398712,679.730347 
	C172.723358,678.876404 172.291046,677.815247 171.827545,676.408875 
z"/>
<path fill="#6A6A6A" opacity="1.000000" stroke="none" 
	d="
M765.648926,151.948395 
	C764.724792,151.878159 763.479248,151.678223 762.139404,151.152466 
	C763.139221,151.157333 764.233398,151.488022 765.648926,151.948395 
z"/>
<path fill="#6B6B6C" opacity="1.000000" stroke="none" 
	d="
M256.586853,153.857742 
	C255.707016,154.532074 254.462143,155.248886 252.813797,155.949768 
	C253.680832,155.255981 254.951324,154.578110 256.586853,153.857742 
z"/>
<path fill="#6A6A6A" opacity="1.000000" stroke="none" 
	d="
M470.000793,892.394531 
	C470.866272,892.522705 471.888641,892.942261 472.934387,893.728394 
	C472.024414,893.625305 471.091064,893.155640 470.000793,892.394531 
z"/>
<path fill="#666767" opacity="1.000000" stroke="none" 
	d="
M327.569641,141.046539 
	C326.788300,141.265762 325.617340,141.435257 324.244873,141.348938 
	C325.088898,141.061020 326.134430,141.028931 327.569641,141.046539 
z"/>
<path fill="#6B6C6C" opacity="1.000000" stroke="none" 
	d="
M844.919434,220.701172 
	C844.440613,220.434052 843.962769,219.883286 843.721436,219.176880 
	C844.278809,219.486679 844.599548,219.952118 844.919434,220.701172 
z"/>
<path fill="#6A6A6A" opacity="1.000000" stroke="none" 
	d="
M758.925781,149.620071 
	C758.202148,149.754410 757.282898,149.603333 756.194031,149.134766 
	C756.926331,148.989746 757.828247,149.162201 758.925781,149.620071 
z"/>
<path fill="#6A6A6A" opacity="1.000000" stroke="none" 
	d="
M479.035797,897.437866 
	C479.771210,897.286804 480.690979,897.447388 481.753418,897.945740 
	C481.004089,898.105530 480.112122,897.927551 479.035797,897.437866 
z"/>
<path fill="#6A6A6A" opacity="1.000000" stroke="none" 
	d="
M761.906616,150.654953 
	C761.198425,150.764526 760.276428,150.605591 759.194580,150.122055 
	C759.920776,149.993790 760.806824,150.190125 761.906616,150.654953 
z"/>
<path fill="#666767" opacity="1.000000" stroke="none" 
	d="
M743.982056,145.648849 
	C743.252502,145.829163 742.333618,145.701401 741.208130,145.288574 
	C741.931946,145.115936 742.862305,145.228363 743.982056,145.648849 
z"/>
<path fill="#6B6B6C" opacity="1.000000" stroke="none" 
	d="
M264.617493,150.809921 
	C264.176453,151.184036 263.390594,151.571136 262.239685,151.937317 
	C262.673981,151.551926 263.473297,151.187424 264.617493,150.809921 
z"/>
<path fill="#6B6B6C" opacity="1.000000" stroke="none" 
	d="
M251.737015,155.940735 
	C251.546661,156.247147 251.046997,156.586670 250.222809,156.937775 
	C250.408112,156.624191 250.917908,156.299011 251.737015,155.940735 
z"/>
<path fill="#6B6C6C" opacity="1.000000" stroke="none" 
	d="
M850.133667,230.654037 
	C849.801636,230.484879 849.436584,230.003479 849.076660,229.193054 
	C849.421448,229.356613 849.761047,229.849213 850.133667,230.654037 
z"/>
<path fill="#6A6A6A" opacity="1.000000" stroke="none" 
	d="
M473.104218,894.273560 
	C473.503723,894.218140 474.102203,894.391785 474.838501,894.855591 
	C474.418610,894.931335 473.860931,894.716980 473.104218,894.273560 
z"/>
<path fill="#6A6A6A" opacity="1.000000" stroke="none" 
	d="
M475.044983,895.330261 
	C475.479431,895.242249 476.086365,895.413696 476.828857,895.882812 
	C476.382111,895.983582 475.799805,895.786682 475.044983,895.330261 
z"/>
<path fill="#6A6A6A" opacity="1.000000" stroke="none" 
	d="
M476.999908,896.379211 
	C477.457520,896.267334 478.070496,896.432495 478.815552,896.901611 
	C478.350159,897.022400 477.752716,896.839294 476.999908,896.379211 
z"/>
<path fill="#6B6B6C" opacity="1.000000" stroke="none" 
	d="
M249.675949,156.931885 
	C249.495255,157.234283 249.011383,157.579056 248.204895,157.929565 
	C248.379105,157.614944 248.875931,157.294617 249.675949,156.931885 
z"/>
<path fill="#6A6A6A" opacity="1.000000" stroke="none" 
	d="
M483.003357,899.382446 
	C483.461243,899.254578 484.077454,899.401367 484.835144,899.843689 
	C484.371674,899.978516 483.766663,899.817810 483.003357,899.382446 
z"/>
<path fill="#6B6C6C" opacity="1.000000" stroke="none" 
	d="
M847.074585,224.678436 
	C846.773804,224.499542 846.425110,224.022308 846.060791,223.225555 
	C846.372314,223.397385 846.699463,223.888748 847.074585,224.678436 
z"/>
<path fill="#6B6C6C" opacity="1.000000" stroke="none" 
	d="
M848.115356,226.661987 
	C847.800171,226.490005 847.437195,226.015472 847.066162,225.215302 
	C847.394592,225.379593 847.731079,225.869522 848.115356,226.661987 
z"/>
<path fill="#6B6C6C" opacity="1.000000" stroke="none" 
	d="
M849.112244,228.661102 
	C848.797180,228.486267 848.435364,228.003815 848.078125,227.193207 
	C848.410339,227.361191 848.737915,227.857346 849.112244,228.661102 
z"/>
<path fill="#6B6C6C" opacity="1.000000" stroke="none" 
	d="
M851.113098,232.659180 
	C850.797302,232.485550 850.439270,232.004456 850.080688,231.195145 
	C850.410339,231.361862 850.740601,231.856796 851.113098,232.659180 
z"/>
<path fill="#6A6A6A" opacity="1.000000" stroke="none" 
	d="
M481.770142,898.433228 
	C482.136444,898.289368 482.452301,898.469604 482.852234,898.920898 
	C482.530762,899.047058 482.125214,898.902100 481.770142,898.433228 
z"/>
<path fill="#6A6A6A" opacity="1.000000" stroke="none" 
	d="
M469.254028,891.965576 
	C469.318695,891.833679 469.590057,891.815247 469.890594,891.992126 
	C469.919800,892.187378 469.460693,892.079163 469.254028,891.965576 
z"/>
<path fill="#666767" opacity="1.000000" stroke="none" 
	d="
M313.699341,141.117554 
	C313.859314,141.446564 313.645782,141.681885 313.088684,141.894333 
	C313.049683,141.689636 313.243256,141.407104 313.699341,141.117554 
z"/>
<path fill="#666767" opacity="1.000000" stroke="none" 
	d="
M320.734772,141.057831 
	C320.708649,141.206268 320.449005,141.317108 320.112122,141.263641 
	C320.034851,141.099365 320.501251,141.020233 320.734772,141.057831 
z"/>
<path fill="#6B6C6C" opacity="1.000000" stroke="none" 
	d="
M846.019897,222.701080 
	C845.802368,222.746613 845.510620,222.518204 845.139282,222.013916 
	C845.354980,221.967728 845.650330,222.197449 846.019897,222.701080 
z"/>
<path fill="#6B6B6C" opacity="1.000000" stroke="none" 
	d="
M247.709930,157.891190 
	C247.714798,158.053177 247.483734,158.248276 247.145996,158.281403 
	C247.039307,158.119415 247.473999,157.924286 247.709930,157.891190 
z"/>
<path fill="#000000" opacity="1.000000" stroke="none" 
	d="
M820.107300,449.954681 
	C820.054749,454.677338 820.002197,459.400024 819.983032,464.993195 
	C820.045410,467.226440 820.074341,468.589203 820.103271,469.951935 
	C820.050110,475.337463 819.996887,480.722961 819.986877,486.803894 
	C820.030090,487.499268 820.108643,487.960419 820.108643,487.960419 
	C820.056335,493.014465 820.004028,498.068512 819.986328,503.975098 
	C820.051270,505.868042 820.081604,506.908447 820.111938,507.948883 
	C820.060242,509.045410 820.008545,510.141907 819.986084,512.032715 
	C820.045410,513.868530 820.075500,514.910095 820.105591,515.951660 
	C820.054749,516.419678 820.003906,516.887634 819.986938,518.090820 
	C820.051636,519.866760 820.082581,520.907471 820.113525,521.948242 
	C820.058655,534.337830 820.003723,546.727417 819.984680,559.944336 
	C820.050354,561.498169 820.080139,562.224731 820.109985,562.951294 
	C820.056763,564.697266 820.003601,566.443237 819.983643,569.039368 
	C820.045959,571.576782 820.075073,573.264099 820.104126,574.951355 
	C820.052185,580.008240 820.000305,585.065063 819.983032,591.023071 
	C820.046692,594.266479 820.075684,596.608704 820.104736,598.950928 
	C820.052124,602.015015 819.999451,605.079102 819.979431,609.059448 
	C819.792419,616.975647 819.572876,623.975708 819.353333,630.975708 
	C812.756958,673.358093 788.966125,702.862732 752.292969,724.051758 
	C676.894714,767.615356 602.020325,812.085815 526.942200,856.203247 
	C517.504028,861.749207 508.126770,861.957153 498.638184,856.362732 
	C420.181549,810.105408 341.696686,763.895996 263.266083,717.594543 
	C239.116287,703.337708 222.649689,682.632568 212.577942,655.859131 
	C211.865341,654.470337 211.476868,653.674866 211.088394,652.879395 
	C211.088394,652.879395 211.088165,652.987732 211.123825,652.591919 
	C210.456482,650.098083 209.753494,648.000122 209.050507,645.902100 
	C209.050507,645.902100 209.039139,645.984375 209.060974,645.575928 
	C208.353745,641.792480 207.624695,638.417603 206.895630,635.042664 
	C206.575165,631.293579 206.254700,627.544434 205.863953,622.924072 
	C205.655121,618.394897 205.391846,614.736877 205.396179,611.079163 
	C205.522049,504.734375 205.674637,398.389557 205.822937,292.044769 
	C210.711807,246.760773 234.314041,214.997498 275.898163,195.492767 
	C277.033508,194.790100 277.613800,194.420151 278.194092,194.050171 
	C278.194092,194.050171 278.616882,194.067993 279.129456,194.042114 
	C280.141937,193.713303 280.641846,193.410385 281.141754,193.107483 
	C281.141754,193.107483 281.028778,193.089584 281.377991,193.135712 
	C282.524109,192.812134 283.321014,192.442413 284.117950,192.072693 
	C284.117950,192.072693 284.015503,192.062073 284.423462,192.090408 
	C289.544800,191.024460 294.258240,189.930176 298.971649,188.835892 
	C302.064941,188.523193 305.158234,188.210495 309.094971,187.808044 
	C313.428619,187.554520 316.918976,187.244293 320.409027,187.248032 
	C452.250183,187.389175 584.091309,187.559219 715.932434,187.725403 
	C761.931946,190.439178 805.313660,227.096848 815.982483,271.381317 
	C817.319153,276.929810 818.648193,282.480103 819.699219,288.573303 
	C819.592529,289.604736 819.767334,290.092438 819.942139,290.580170 
	C819.942078,290.580170 819.778442,290.715057 819.804321,291.284882 
	C819.918701,296.554810 820.007141,301.254913 820.095703,305.955017 
	C820.046082,308.687103 819.996460,311.419189 819.980957,315.063049 
	C820.045288,321.633362 820.075562,327.291901 820.105835,332.950409 
	C820.053711,333.727783 820.001587,334.505157 819.981567,336.127380 
	C820.042725,341.965729 820.071716,346.959229 820.100708,351.952698 
	C820.051941,352.419373 820.003174,352.886078 819.984985,354.016235 
	C820.044128,355.105560 820.072693,355.531433 820.101257,355.957275 
	C820.049438,362.009186 819.997559,368.061096 819.980957,374.896271 
	C820.044556,376.105469 820.072815,376.531433 820.101074,376.957367 
	C820.049438,385.007629 819.997803,393.057892 819.989624,401.803894 
	C820.033081,402.499634 820.109802,402.960022 820.109741,402.960022 
	C820.055176,410.009338 820.000549,417.058685 819.989197,424.803833 
	C820.032471,425.499664 820.108154,425.960480 820.108154,425.960480 
	C820.056030,433.011841 820.003906,440.063202 819.985657,447.897278 
	C820.048706,449.104919 820.078003,449.529785 820.107300,449.954681 
M580.097107,417.589203 
	C557.812317,432.776764 535.527527,447.964355 513.142761,463.220032 
	C445.513458,417.344269 378.060852,371.588379 310.742859,325.923798 
	C310.742859,339.323273 310.731262,352.428558 310.744751,365.533844 
	C310.826019,444.356415 310.939514,523.179016 310.908356,602.001526 
	C310.907013,605.409729 312.013214,607.334839 314.750336,609.119690 
	C329.993652,619.059448 345.143158,629.143250 360.315765,639.191284 
	C368.791565,644.804504 377.249908,650.444092 386.371094,656.507202 
	C386.371094,595.164001 386.371094,534.797363 386.371094,474.116089 
	C387.698853,474.955688 388.680267,475.533905 389.618286,476.175507 
	C429.649719,503.557251 469.705231,530.904053 509.644928,558.418945 
	C512.426208,560.335022 513.998352,560.410583 516.782043,558.468384 
	C554.248352,532.327087 591.820496,506.337433 629.380676,480.330811 
	C632.656494,478.062653 636.032715,475.939514 639.782471,473.472595 
	C639.782471,534.861572 639.782471,595.301697 639.782471,656.379578 
	C641.609558,655.400696 643.072266,654.762573 644.381836,653.893677 
	C666.574890,639.169617 688.692688,624.330688 710.989075,609.765076 
	C714.266296,607.624146 715.076233,605.331726 715.085632,601.674072 
	C715.308655,514.689880 715.652344,427.706055 715.970093,340.722137 
	C715.987976,335.812500 715.972351,330.902740 715.972351,325.197754 
	C670.376526,356.176727 625.519348,386.653870 580.097107,417.589203 
z"/>
<path fill="#9F9F9F" opacity="1.000000" stroke="none" 
	d="
M715.818115,187.356628 
	C584.091309,187.559219 452.250183,187.389175 320.409027,187.248032 
	C316.918976,187.244293 313.428619,187.554520 309.512573,187.666016 
	C311.147095,187.078537 313.207031,186.077393 315.267914,186.075317 
	C397.226776,185.993271 479.185730,186.000534 561.144653,185.999191 
	C610.619873,185.998383 660.095032,185.990692 709.570190,186.045868 
	C711.615112,186.048157 713.659302,186.660019 715.818115,187.356628 
z"/>
<path fill="#9D9D9D" opacity="1.000000" stroke="none" 
	d="
M205.441437,292.142029 
	C205.674637,398.389557 205.522049,504.734375 205.396179,611.079163 
	C205.391846,614.736877 205.655121,618.394897 205.743225,622.491760 
	C205.132477,621.059204 204.083908,619.188110 204.082062,617.315979 
	C203.998367,532.989563 204.005844,448.663055 204.004288,364.336548 
	C204.003876,342.005035 203.986359,319.673431 204.056992,297.342133 
	C204.062378,295.640137 204.710556,293.940186 205.441437,292.142029 
z"/>
<path fill="#9C9B9C" opacity="1.000000" stroke="none" 
	d="
M819.757019,630.789062 
	C819.572876,623.975708 819.792419,616.975647 820.058350,609.512573 
	C820.123352,616.233826 820.142029,623.418091 819.757019,630.789062 
z"/>
<path fill="#949595" opacity="1.000000" stroke="none" 
	d="
M298.979095,188.625687 
	C294.258240,189.930176 289.544800,191.024460 284.426819,192.141785 
	C288.730103,190.772980 293.437927,189.381104 298.572876,187.994629 
	C299.000000,188.000000 298.993256,187.994843 298.993256,187.994843 
	C298.993256,187.994843 298.986542,188.415482 298.979095,188.625687 
z"/>
<path fill="#9C9B9C" opacity="1.000000" stroke="none" 
	d="
M820.391113,332.653412 
	C820.075562,327.291901 820.045288,321.633362 820.060242,315.512329 
	C820.295776,320.818665 820.486084,326.587555 820.391113,332.653412 
z"/>
<path fill="#949595" opacity="1.000000" stroke="none" 
	d="
M206.622162,635.297485 
	C207.624695,638.417603 208.353745,641.792480 209.102509,645.575439 
	C208.197678,642.506348 207.273178,639.029297 206.622162,635.297485 
z"/>
<path fill="#9C9B9C" opacity="1.000000" stroke="none" 
	d="
M820.389160,351.658936 
	C820.071716,346.959229 820.042725,341.965729 820.059570,336.510925 
	C820.296143,341.154816 820.486816,346.260010 820.389160,351.658936 
z"/>
<path fill="#9C9B9C" opacity="1.000000" stroke="none" 
	d="
M820.385010,305.662598 
	C820.007141,301.254913 819.918701,296.554810 819.849365,291.380859 
	C820.137146,295.728088 820.405762,300.549133 820.385010,305.662598 
z"/>
<path fill="#949595" opacity="1.000000" stroke="none" 
	d="
M209.045166,646.308350 
	C209.753494,648.000122 210.456482,650.098083 211.177032,652.581787 
	C210.476318,650.883118 209.758072,648.798828 209.045166,646.308350 
z"/>
<path fill="#9C9B9C" opacity="1.000000" stroke="none" 
	d="
M820.378418,598.684937 
	C820.075684,596.608704 820.046692,594.266479 820.062866,591.487488 
	C820.289429,593.506775 820.470764,595.962830 820.378418,598.684937 
z"/>
<path fill="#9C9B9C" opacity="1.000000" stroke="none" 
	d="
M820.369263,574.709229 
	C820.075073,573.264099 820.045959,571.576782 820.062500,569.469910 
	C820.283508,570.855896 820.458984,572.661560 820.369263,574.709229 
z"/>
<path fill="#9C9B9C" opacity="1.000000" stroke="none" 
	d="
M820.362915,469.727539 
	C820.074341,468.589203 820.045410,467.226440 820.062134,465.456970 
	C820.279419,466.534515 820.450989,468.018829 820.362915,469.727539 
z"/>
<path fill="#9C9B9C" opacity="1.000000" stroke="none" 
	d="
M820.360901,507.744629 
	C820.081604,506.908447 820.051270,505.868042 820.066406,504.439423 
	C820.277832,505.214294 820.443848,506.377319 820.360901,507.744629 
z"/>
<path fill="#9C9B9C" opacity="1.000000" stroke="none" 
	d="
M820.356689,515.748596 
	C820.075500,514.910095 820.045410,513.868530 820.062988,512.438721 
	C820.276306,513.215454 820.442078,514.380493 820.356689,515.748596 
z"/>
<path fill="#9C9B9C" opacity="1.000000" stroke="none" 
	d="
M820.361145,521.742554 
	C820.082581,520.907471 820.051636,519.866760 820.063965,518.437500 
	C820.274414,519.211609 820.441589,520.374268 820.361145,521.742554 
z"/>
<path fill="#9C9B9C" opacity="1.000000" stroke="none" 
	d="
M820.349182,562.777100 
	C820.080139,562.224731 820.050354,561.498169 820.065063,560.410095 
	C820.269165,560.900024 820.428772,561.751526 820.349182,562.777100 
z"/>
<path fill="#949595" opacity="1.000000" stroke="none" 
	d="
M283.754395,192.059814 
	C283.321014,192.442413 282.524109,192.812134 281.382385,193.192749 
	C281.821991,192.818069 282.606415,192.432495 283.754395,192.059814 
z"/>
<path fill="#949595" opacity="1.000000" stroke="none" 
	d="
M211.065887,653.260498 
	C211.476868,653.674866 211.865341,654.470337 212.353928,655.599426 
	C211.983826,655.169250 211.513611,654.405396 211.065887,653.260498 
z"/>
<path fill="#949595" opacity="1.000000" stroke="none" 
	d="
M280.831299,193.090210 
	C280.641846,193.410385 280.141937,193.713303 279.331787,193.980133 
	C279.521301,193.653687 280.021057,193.363312 280.831299,193.090210 
z"/>
<path fill="#949595" opacity="1.000000" stroke="none" 
	d="
M277.828186,194.062988 
	C277.613800,194.420151 277.033508,194.790100 276.090271,195.226288 
	C276.305634,194.886963 276.883942,194.481384 277.828186,194.062988 
z"/>
<path fill="#9C9B9C" opacity="1.000000" stroke="none" 
	d="
M820.325806,449.822510 
	C820.078003,449.529785 820.048706,449.104919 820.064575,448.363037 
	C820.254517,448.594147 820.399353,449.142242 820.325806,449.822510 
z"/>
<path fill="#9C9B9C" opacity="1.000000" stroke="none" 
	d="
M820.322144,376.826111 
	C820.072815,376.531433 820.044556,376.105469 820.059631,375.361633 
	C820.249817,375.594086 820.396545,376.144470 820.322144,376.826111 
z"/>
<path fill="#9C9B9C" opacity="1.000000" stroke="none" 
	d="
M820.322388,355.826141 
	C820.072693,355.531433 820.044128,355.105560 820.060181,354.362000 
	C820.251038,354.594543 820.397278,355.144775 820.322388,355.826141 
z"/>
<path fill="#9C9B9C" opacity="1.000000" stroke="none" 
	d="
M820.272217,402.883728 
	C820.109802,402.960022 820.033081,402.499634 820.069275,402.269104 
	C820.215149,402.294830 820.324829,402.551117 820.272217,402.883728 
z"/>
<path fill="#9C9B9C" opacity="1.000000" stroke="none" 
	d="
M820.272339,487.884094 
	C820.108643,487.960419 820.030090,487.499268 820.065918,487.268188 
	C820.213135,487.293976 820.324585,487.550873 820.272339,487.884094 
z"/>
<path fill="#9C9B9C" opacity="1.000000" stroke="none" 
	d="
M820.271118,425.884583 
	C820.108154,425.960480 820.032471,425.499664 820.068604,425.269012 
	C820.214478,425.295135 820.324280,425.551880 820.271118,425.884583 
z"/>
<path fill="#9C9B9C" opacity="1.000000" stroke="none" 
	d="
M819.959961,290.145752 
	C819.767334,290.092438 819.592529,289.604736 819.689575,288.979431 
	C819.966858,289.131622 819.972351,289.421478 819.959961,290.145752 
z"/>
<path fill="#949595" opacity="1.000000" stroke="none" 
	d="
M299.002686,188.003464 
	C299.093903,187.967224 299.182373,187.927505 299.132080,187.941315 
	C298.993256,187.994843 299.000000,188.000000 299.002686,188.003464 
z"/>
<path fill="#FEFEFE" opacity="1.000000" stroke="none" 
	d="
M580.379639,417.360107 
	C625.519348,386.653870 670.376526,356.176727 715.972351,325.197754 
	C715.972351,330.902740 715.987976,335.812500 715.970093,340.722137 
	C715.652344,427.706055 715.308655,514.689880 715.085632,601.674072 
	C715.076233,605.331726 714.266296,607.624146 710.989075,609.765076 
	C688.692688,624.330688 666.574890,639.169617 644.381836,653.893677 
	C643.072266,654.762573 641.609558,655.400696 639.782471,656.379578 
	C639.782471,595.301697 639.782471,534.861572 639.782471,473.472595 
	C636.032715,475.939514 632.656494,478.062653 629.380676,480.330811 
	C591.820496,506.337433 554.248352,532.327087 516.782043,558.468384 
	C513.998352,560.410583 512.426208,560.335022 509.644928,558.418945 
	C469.705231,530.904053 429.649719,503.557251 389.618286,476.175507 
	C388.680267,475.533905 387.698853,474.955688 386.371094,474.116089 
	C386.371094,534.797363 386.371094,595.164001 386.371094,656.507202 
	C377.249908,650.444092 368.791565,644.804504 360.315765,639.191284 
	C345.143158,629.143250 329.993652,619.059448 314.750336,609.119690 
	C312.013214,607.334839 310.907013,605.409729 310.908356,602.001526 
	C310.939514,523.179016 310.826019,444.356415 310.744751,365.533844 
	C310.731262,352.428558 310.742859,339.323273 310.742859,325.923798 
	C378.060852,371.588379 445.513458,417.344269 513.142761,463.220032 
	C535.527527,447.964355 557.812317,432.776764 580.379639,417.360107 
z"/>
</svg>